<svg xmlns="http://www.w3.org/2000/svg" fill="none" viewBox="0 0 1200 800" width="1200" height="800"><defs><clipPath id="assetClipPath_yqVx7f_5"><path d="m0 0 h 1100.5 v 786.033 h -1100.5 v -786.033 z" id="path_0587aKFs" fill="#ffffff" /></clipPath></defs><path id="collage_bg" d="M0 0h1200v800H0z" fill="#ffffff" /><g transform="translate(209 120)" data-asset-index="0"><g clip-path="url(#assetClipPath_yqVx7f_5)" transform="scale(0.7114947751022263 0.7114947751022263)" data-asset-index="0"><path d="m1094.5 57.138v677.561c0 25.041-20.293 45.334-45.334 45.334h-989.918c-25.041 0-52.193-21.918-52.193-46.959l6.859-675.936c0-25.041 20.293-45.334 45.334-45.334l988.293-4.749c25.041 0 46.959 25.041 46.959 50.083z" fill="#000000" id="hKaNDHvlgq76H5O3HIQ9" /><path d="m1049.166 786.033h-989.918c-26.911 0-58.193-23.134-58.193-52.959l6.86-675.997c0-28.245 23.028-51.273 51.333-51.273l988.264-4.749c27.746 0 52.988 26.731 52.988 56.083v677.561c0 28.306-23.028 51.334-51.334 51.334zm-1.625-772.978-988.264 4.749c-21.718 0-39.363 17.645-39.363 39.334l-6.859 675.997c0 9.873 5.336 20.202 14.64 28.278 9.104 7.902 20.899 12.62 31.554 12.62h989.917c21.688 0 39.334-17.645 39.334-39.334v-677.561c0-22.659-19.905-44.083-40.959-44.083z" fill="#000000" id="LZuZoHdLs5ZhuQForBL3A" /><rect fill="#FFFFFF" height="768.229" rx="45.334" width="1080.586" x="6" y="6" id="ZoXp558yIRwiA2W-KTBgA" /><path d="m1041.252 780.229h-989.918c-28.306 0-51.334-23.028-51.334-51.334v-677.561c0-28.306 23.028-51.334 51.334-51.334h989.918c28.306 0 51.334 23.028 51.334 51.334v677.561c0 28.306-23.028 51.334-51.334 51.334zm-989.918-768.229c-21.689 0-39.334 17.645-39.334 39.334v677.561c0 21.689 17.645 39.334 39.334 39.334h989.918c21.688 0 39.334-17.645 39.334-39.334v-677.561c0-21.689-17.646-39.334-39.334-39.334z" fill="#000000" id="kBs1BAFWmtA7tLBUbohA4" /><path d="m1086.586 51.334v65.468h-1080.586v-65.468c0-25.041 20.293-45.334 45.334-45.334h989.918c25.041 0 45.334 20.293 45.334 45.334z" fill="#878787" id="ErR9NKRx6Iz9zZ3pZ6ycA" /><path d="m1086.586 122.802h-1080.586c-3.314 0-6-2.686-6-6v-65.468c0-28.306 23.028-51.334 51.334-51.334h989.918c28.306 0 51.334 23.028 51.334 51.334v65.468c0 3.314-2.687 6-6 6zm-1074.586-12h1068.586v-59.468c0-21.689-17.646-39.334-39.334-39.334h-989.918c-21.689 0-39.334 17.645-39.334 39.334z" fill="#000000" id="Wb_MlvX2VG28jQ98UVmQJ" /><circle cx="70.371" cy="60.873" r="26.381" fill="#000000" id="hN90G_ZVxi4IA83wtxrwD" /><path d="m70.371 93.255c-17.855 0-32.381-14.526-32.381-32.381s14.526-32.381 32.381-32.381 32.381 14.526 32.381 32.381-14.526 32.381-32.381 32.381zm0-52.763c-11.238 0-20.381 9.143-20.381 20.381s9.143 20.381 20.381 20.381 20.381-9.143 20.381-20.381-9.143-20.381-20.381-20.381z" fill="#000000" id="NlHCVVi3VvUbLhfv5-bog" /><circle cx="166.399" cy="60.873" fill="#878787" r="26.381" id="WgPGUNg5ph1u3BzVJhRHS" /><path d="m166.399 93.255c-17.855 0-32.381-14.526-32.381-32.381s14.526-32.381 32.381-32.381 32.382 14.526 32.382 32.381-14.526 32.381-32.382 32.381zm0-52.763c-11.238 0-20.381 9.143-20.381 20.381s9.143 20.381 20.381 20.381 20.382-9.143 20.382-20.381-9.143-20.381-20.382-20.381z" fill="#000000" id="xnjY9uuc1vUI24U16RxKn" /><circle cx="262.428" cy="60.873" fill="#FFFFFF" r="26.381" id="c83fxIEg7l1FoIdvrCG3R" /><path d="m262.428 93.255c-17.855 0-32.381-14.526-32.381-32.381s14.526-32.381 32.381-32.381 32.381 14.526 32.381 32.381-14.526 32.381-32.381 32.381zm0-52.763c-11.238 0-20.381 9.143-20.381 20.381s9.143 20.381 20.381 20.381 20.381-9.143 20.381-20.381-9.143-20.381-20.381-20.381z" fill="#000000" id="Cshove08RQLjXlOlhMkIn" /><path d="m466.094 444.656h-395.723c-3.314 0-6-2.686-6-6v-226.881c0-3.314 2.686-6 6-6h395.723c3.313 0 6 2.686 6 6v226.881c0 3.314-2.687 6-6 6zm-389.723-12h383.723v-214.881h-383.723z" fill="#000000" id="SoBer880n5bwaoZ_BdWVj" /><path d="m48.21 188.56h47.487v47.487h-47.487z" fill="#000000" id="dP9H9XLfXpnLFtOofQUyG" /><path d="m95.697 242.046h-47.487c-3.313 0-6-2.686-6-6v-47.487c0-3.314 2.687-6 6-6h47.487c3.313 0 6 2.686 6 6v47.487c0 3.314-2.687 6-6 6zm-41.487-12h35.487v-35.487h-35.487z" fill="#000000" id="nRFfyl0yjb9HVlYfmTuMe" /><path d="m48.21 414.385h47.487v47.487h-47.487z" fill="#000000" id="Bnvsrtgy7POuitDlgrHkM" /><path d="m95.697 467.872h-47.487c-3.313 0-6-2.686-6-6v-47.487c0-3.314 2.687-6 6-6h47.487c3.313 0 6 2.686 6 6v47.487c0 3.314-2.687 6-6 6zm-41.487-12h35.487v-35.487h-35.487z" fill="#000000" id="yN6la5bdFME2LlnJR4Nh" /><path d="m441.822 188.56h47.487v47.487h-47.487z" fill="#000000" id="Rs3SM3WLhTklb2I_v0yP" /><path d="m489.308 242.046h-47.486c-3.313 0-6-2.686-6-6v-47.487c0-3.314 2.687-6 6-6h47.486c3.313 0 6 2.686 6 6v47.487c0 3.314-2.687 6-6 6zm-41.486-12h35.486v-35.487h-35.486z" fill="#000000" id="yksYhGrt15gQx66Ci3K7C" /><path d="m441.822 414.385h47.487v47.487h-47.487z" fill="#000000" id="U-wVHnl6lPnSXdjosCumA" /><path d="m489.308 467.872h-47.486c-3.313 0-6-2.686-6-6v-47.487c0-3.314 2.687-6 6-6h47.486c3.313 0 6 2.686 6 6v47.487c0 3.314-2.687 6-6 6zm-41.486-12h35.486v-35.487h-35.486z" fill="#000000" id="zPHAPHZ8Z248cswHO-hU3" /><path d="m454.485 429.159v127.686l32.713-48.542 59.095-1.055z" fill="#FFFFFF" id="uXmgSBNUahA6wQR_fJhlc" /><path d="m454.485 562.846c-.584 0-1.174-.085-1.753-.262-2.523-.771-4.247-3.1-4.247-5.738v-127.686c0-2.339 1.359-4.465 3.482-5.446 2.122-.981 4.623-.64 6.405.876l91.808 78.089c1.9 1.617 2.603 4.241 1.762 6.591-.84 2.35-3.047 3.934-5.542 3.979l-55.972 1-30.968 45.952c-1.136 1.686-3.018 2.647-4.976 2.647zm6-120.707v95.066l21.737-32.255c1.094-1.624 2.911-2.611 4.868-2.646l43.222-.772z" fill="#000000" id="BeE5bRBFydXwWi1PwooIt" /><path d="m516.751 567.068c-2.121 0-4.177-1.127-5.268-3.119l-24.271-44.321c-1.592-2.906-.525-6.553 2.381-8.144 2.903-1.591 6.552-.527 8.145 2.381l24.271 44.321c1.592 2.906.525 6.553-2.381 8.144-.914.501-1.902.739-2.877.739z" fill="#000000" id="w1YgnoUVVywUjl_7qMrOr" /><path d="m630.48 177.59h389.817v389.808h-389.817z" fill="#FFFFFF" id="FgtCT_z7By1EPcO-wr5lB" /><path d="m1020.297 573.398h-389.817c-3.313 0-6-2.686-6-6v-389.808c0-3.314 2.687-6 6-6h389.817c3.313 0 6 2.686 6 6v389.808c0 3.314-2.687 6-6 6zm-383.818-12h377.817v-377.808h-377.817z" fill="#000000" id="T7GpZS73RWF1aphylM4qP" /><path d="m832.589 484.243c-10.765 12.172-89.426 51.503-155.265 83.155h-46.845v-257.126c10.353-30.129 44.919-92.677 72.077-38.359 27.159 54.317 46.655 107.811 87.936 124.683 41.273 16.871 61.025 66.251 42.096 87.648z" fill="#000000" id="S-Zz2OegsyrxRwjp_t5ah" /><path d="m677.324 573.398h-46.845c-3.313 0-6-2.686-6-6v-257.127c0-.663.11-1.322.326-1.95 7.337-21.352 27.655-62.159 52.036-63.779 12.032-.799 22.492 7.505 31.082 24.686 4.258 8.516 8.348 17.052 12.303 25.307 21.375 44.612 39.835 83.14 72.537 96.505 25.35 10.363 45.55 33.428 51.461 58.764 3.613 15.482 1.077 29.125-7.141 38.415-3.438 3.887-13.906 15.719-157.16 84.587-.812.39-1.699.593-2.6.593zm-40.845-12h39.478c126.243-60.727 148.454-76.964 152.139-81.13 5.57-6.297 7.147-16.147 4.443-27.737-4.144-17.755-19.452-40.219-44.315-50.383-36.984-15.115-57.305-57.527-78.818-102.428-3.934-8.21-8.002-16.7-12.214-25.125-6.224-12.447-12.849-18.522-19.554-18.079-15.376 1.021-33.454 32.929-41.158 54.77v250.112z" fill="#000000" id="gVrfJMyYWMx_cF8rR5f-Q" /><path d="m1020.297 310.601v256.797h-389.817c-.346-.033 127.382-153.578 164.334-194.9 36.952-41.33 67.403-36.393 86.331-7.588 18.929 28.805 59.025 38.211 78.892 7.588 19.867-30.632 31.512-66.012 60.259-61.897z" fill="#878787" id="EKmpxXVomZ7x_1yLVPNgO" /><path d="m1020.297 573.398h-389.817c-2.47 0-4.688-1.514-5.588-3.814-1.287-3.289.401-5.361 2.356-7.761.941-1.156 2.331-2.848 4.115-5.011 3.551-4.306 8.673-10.487 14.937-18.024 14.186-17.068 31.629-37.963 47.859-57.325 27.002-32.214 75.402-89.726 96.183-112.964 20.206-22.599 39.819-33.362 58.308-31.991 14.45 1.072 27.421 9.754 37.511 25.107 9.516 14.482 25.325 23.823 40.302 23.823h.106c8.191-.024 19.774-2.855 28.436-16.205 4.2-6.477 8.067-13.244 11.807-19.787 14.278-24.986 27.758-48.587 54.337-44.783 2.955.423 5.149 2.954 5.149 5.939v256.797c0 3.314-2.687 6-6 6zm-377.16-12h371.159v-245.071c-14.522.982-23.858 15.956-37.067 39.072-3.822 6.688-7.773 13.604-12.158 20.364-9.037 13.931-22.698 21.628-38.468 21.675-19.224.048-38.585-11.145-50.473-29.233-8.079-12.294-17.624-18.933-28.369-19.73-14.391-1.068-31.132 8.625-48.475 28.022-30.964 34.626-127.803 150.63-156.149 184.901z" fill="#000000" id="xtWQ2TShdxxb67oaYPsQ9" /><circle cx="920.901" cy="256.72" fill="#FFFFFF" r="35.389" id="rPecQ97a_JIzcUEJartvY" /><g fill="#878787" id="wgg4K9YJE5nwMYerXskg"><path d="m920.901 298.108c-22.822 0-41.389-18.567-41.389-41.389s18.566-41.389 41.389-41.389 41.389 18.567 41.389 41.389-18.566 41.389-41.389 41.389zm0-70.777c-16.205 0-29.389 13.184-29.389 29.389s13.184 29.389 29.389 29.389 29.389-13.184 29.389-29.389-13.184-29.389-29.389-29.389z" fill="#878787" id="sE8wKE7PFeSW4l-eDnpeq" /><path d="m378.691 550.032h-308.32c-3.313 0-6-2.686-6-6s2.687-6 6-6h308.32c3.313 0 6 2.686 6 6s-2.687 6-6 6z" fill="#878787" id="Up9IFJFuHqdsh-Z3esrq" /><path d="m340.517 623.9h-270.146c-3.313 0-6-2.686-6-6s2.687-6 6-6h270.146c3.313 0 6 2.686 6 6s-2.687 6-6 6z" fill="#878787" id="rvMNJLw34Jy3Bm2In3HBl" /><path d="m466.094 697.768h-395.723c-3.314 0-6-2.686-6-6s2.686-6 6-6h395.723c3.313 0 6 2.686 6 6s-2.687 6-6 6z" fill="#878787" id="FiPymqgilcPX9BEnDUv_K" /><path d="m1020.104 623.9h-389.391c-3.313 0-6-2.686-6-6s2.687-6 6-6h389.391c3.313 0 6 2.686 6 6s-2.687 6-6 6z" fill="#878787" id="LZJV3a4cvvMDchTda52LA" /><path d="m1020.104 697.768h-389.391c-3.313 0-6-2.686-6-6s2.687-6 6-6h389.391c3.313 0 6 2.686 6 6s-2.687 6-6 6z" fill="#878787" id="WM3_PQcPTKSO38qG7BUkx" /></g><path d="m504.61 40.492h-81.79c-3.313 0-6-2.686-6-6s2.687-6 6-6h81.79c3.313 0 6 2.686 6 6s-2.687 6-6 6z" fill="#000000" id="mwBr13Z8izCpj1fXaAJp" /><path d="m568.122 40.492h-21.829c-3.313 0-6-2.686-6-6s2.687-6 6-6h21.829c3.313 0 6 2.686 6 6s-2.687 6-6 6z" fill="#000000" id="YxLF-_weVUMjO-4q6MRjB" /><path d="m920.901 40.492h-81.09c-3.313 0-6-2.686-6-6s2.687-6 6-6h81.09c3.313 0 6 2.686 6 6s-2.687 6-6 6z" fill="#000000" id="EKvd0VmXsWBcvwRRPLiA" /><path d="m1062.314 84.813c-3.313 0-6-2.686-6-6v-28.492c0-3.314 2.687-6 6-6s6 2.686 6 6v28.492c0 3.314-2.687 6-6 6z" fill="#000000" id="awKGcfe2MEQ9IuRksWUbu" /><path d="m1062.314 399.544c-3.313 0-6-2.686-6-6v-101.436c0-3.314 2.687-6 6-6s6 2.686 6 6v101.436c0 3.314-2.687 6-6 6z" fill="#000000" id="KdqgtEsBaNWPV8siApEz0" /><path d="m1062.314 473.279c-3.313 0-6-2.686-6-6v-38.12c0-3.314 2.687-6 6-6s6 2.686 6 6v38.12c0 3.314-2.687 6-6 6z" fill="#000000" id="fv9TFz2PG4Wyqvcpcln2x" /><path d="m680.31 753.847h-156.178c-3.313 0-6-2.686-6-6s2.687-6 6-6h156.178c3.313 0 6 2.686 6 6s-2.687 6-6 6z" fill="#000000" id="BmV9Q-gL0zzt4rA9rs7c2" /><path d="m776.34 753.847h-41.194c-3.313 0-6-2.686-6-6s2.687-6 6-6h41.194c3.313 0 6 2.686 6 6s-2.687 6-6 6z" fill="#000000" id="ufYtUy1b2Y1XxvlqwIYM0" /><path d="m125.56 753.847h-63.254c-19.809 0-35.924-16.116-35.924-35.925v-40.778c0-3.314 2.687-6 6-6s6 2.686 6 6v40.778c0 13.192 10.732 23.925 23.924 23.925h63.254c3.313 0 6 2.686 6 6s-2.687 6-6 6z" fill="#000000" id="bvI_hmXD5Y90n1XCWwhmz" /><path d="m340.517 242.046h-98.216c-3.313 0-6-2.686-6-6s2.687-6 6-6h98.216c3.313 0 6 2.686 6 6s-2.687 6-6 6z" fill="#878787" id="prsZTBfihyqibFBKGUbEj" /><path d="m399.612 242.046h-20.921c-3.313 0-6-2.686-6-6s2.687-6 6-6h20.921c3.313 0 6 2.686 6 6s-2.687 6-6 6z" fill="#878787" id="eDIDLbizyZoNMIlwcRSF7" /><path d="m492.474 341.241c-3.313 0-6-2.686-6-6v-37.943c0-3.314 2.687-6 6-6s6 2.686 6 6v37.943c0 3.314-2.687 6-6 6z" fill="#878787" id="wOn_oJA0DCUAUk8rv5B3X" /><path d="m492.474 378.494c-3.313 0-6-2.686-6-6v-19.46c0-3.314 2.687-6 6-6s6 2.686 6 6v19.46c0 3.314-2.687 6-6 6z" fill="#878787" id="ExkIF68ivVjvhmsAJuAAN" /><path d="m95.697 368.764c-3.313 0-6-2.686-6-6v-52.491c0-3.314 2.687-6 6-6s6 2.686 6 6v52.491c0 3.314-2.687 6-6 6z" fill="#878787" id="DCoAgEpznDxoF1GnwGX" /></g></g></svg>